<?xml version="1.0" standalone="no"?>
<!DOCTYPE svg PUBLIC "-//W3C//DTD SVG 20010904//EN"
 "http://www.w3.org/TR/2001/REC-SVG-20010904/DTD/svg10.dtd">
<svg version="1.0" xmlns="http://www.w3.org/2000/svg"
 width="384.000000pt" height="384.000000pt" viewBox="0 0 384.000000 384.000000"
 preserveAspectRatio="xMidYMid meet">

<g transform="translate(0.000000,384.000000) scale(0.100000,-0.100000)"
fill="#000000" stroke="none">
<path d="M2199 3820 c-60 -10 -142 -49 -173 -84 -48 -54 -60 -104 -61 -251 0
-96 5 -154 14 -183 l15 -44 50 5 c28 3 128 13 221 22 249 24 375 30 375 16 0
-6 -5 -11 -11 -11 -28 0 -194 -147 -284 -251 -71 -83 -143 -178 -171 -226 -10
-18 -22 -33 -26 -33 -4 0 -8 -6 -8 -14 0 -8 -10 -27 -23 -43 -12 -15 -28 -39
-35 -53 -7 -14 -22 -42 -35 -62 -28 -48 -66 -115 -84 -150 -8 -16 -18 -28 -22
-28 -14 0 -23 370 -20 780 3 415 3 419 -51 480 -18 21 -30 25 -79 25 -45 -1
-62 -5 -81 -23 -25 -23 -40 -28 -40 -13 0 5 -17 17 -37 26 -69 33 -209 3 -293
-64 -21 -17 -23 -22 -12 -43 7 -12 22 -40 33 -61 l20 -38 -118 -237 c-113
-227 -183 -373 -203 -427 -11 -29 -30 -33 -30 -6 0 36 -67 237 -107 321 -58
120 -118 179 -223 217 -42 15 -226 17 -235 3 -3 -5 -17 -10 -30 -10 -13 0 -26
-4 -30 -9 -3 -5 -19 -12 -35 -16 -17 -4 -30 -11 -30 -16 0 -5 -9 -9 -19 -9
-11 0 -21 -3 -23 -7 -2 -5 -33 -28 -70 -53 -37 -25 -68 -52 -68 -60 0 -8 11
-39 25 -68 14 -30 25 -58 25 -64 0 -5 12 -34 26 -64 24 -52 26 -62 19 -142 -3
-48 -12 -127 -20 -177 -7 -49 -16 -119 -20 -155 -3 -36 -13 -114 -21 -175 -8
-60 -21 -166 -29 -235 -28 -257 -45 -398 -60 -510 -8 -63 -20 -169 -26 -235
-5 -66 -14 -145 -19 -175 -5 -30 -14 -122 -20 -205 -5 -82 -15 -190 -22 -240
-6 -49 -12 -187 -12 -305 -1 -200 1 -219 21 -272 42 -107 102 -148 220 -148
59 0 156 22 173 40 3 3 24 18 47 33 47 30 52 45 27 82 -48 73 -72 283 -55 475
32 378 43 486 55 585 8 61 17 142 21 180 3 39 12 117 20 175 8 58 22 166 30
240 9 74 22 189 30 255 8 66 21 167 29 225 8 58 22 164 31 235 28 221 35 224
64 25 11 -74 25 -157 31 -185 5 -27 17 -99 25 -159 14 -104 14 -113 -7 -210
-14 -65 -22 -138 -22 -206 -1 -164 25 -227 104 -247 34 -9 35 -11 46 -79 46
-277 124 -669 158 -789 24 -84 69 -209 77 -215 3 -3 10 -16 14 -29 9 -30 73
-101 91 -101 8 0 14 -4 14 -8 0 -5 29 -14 65 -21 54 -11 76 -11 125 0 33 7 60
17 60 21 0 4 6 8 12 8 25 0 138 85 152 115 8 16 22 77 31 135 34 224 120 574
195 800 10 30 23 74 29 97 13 49 34 73 62 73 11 0 40 13 64 30 l43 30 -35 71
-35 71 32 81 c84 215 298 633 331 645 5 2 9 8 9 14 0 8 43 72 60 88 3 3 21 26
40 52 19 25 43 51 53 57 15 10 17 7 17 -26 -1 -21 -5 -67 -10 -103 -5 -36 -16
-121 -25 -190 -8 -69 -22 -174 -30 -235 -8 -60 -20 -157 -25 -215 -6 -58 -13
-112 -15 -120 -3 -9 -14 -99 -25 -200 -10 -102 -24 -225 -29 -275 -64 -562
-87 -995 -60 -1141 18 -101 67 -161 150 -188 60 -20 82 -20 159 0 56 14 165
73 181 97 4 5 -6 42 -22 83 -54 139 -60 330 -23 679 39 368 64 585 104 910 6
50 20 160 31 245 10 85 26 211 35 280 8 69 22 184 30 255 8 72 21 175 28 230
28 194 40 389 29 452 -6 32 -9 60 -8 61 2 2 35 -3 74 -12 38 -9 84 -16 101
-16 17 0 40 -5 50 -10 11 -6 92 -11 182 -11 157 0 165 1 218 27 70 34 114 79
148 152 24 52 27 68 27 177 0 110 -16 206 -34 205 -3 -1 -26 -5 -51 -11 -25
-5 -67 -14 -95 -19 -27 -5 -86 -16 -130 -25 -296 -59 -302 -60 -417 -47 -113
13 -170 22 -298 47 -146 28 -173 33 -240 44 -94 15 -306 21 -371 11z m-554
-993 l2 -607 -246 2 -246 3 -11 70 c-12 69 -11 72 26 176 21 58 42 114 49 125
6 10 27 59 47 108 20 49 40 96 44 105 5 9 30 61 56 116 124 267 254 517 266
513 8 -3 12 -195 13 -611z m19 -809 c26 -173 26 -173 -31 -338 -85 -243 -128
-400 -201 -723 -11 -49 -23 -91 -26 -94 -12 -12 -36 8 -36 30 0 14 -7 64 -16
113 -15 88 -36 217 -74 468 -11 71 -22 136 -25 145 -2 9 -11 63 -20 121 -8 58
-21 141 -30 185 -8 44 -14 90 -15 103 l0 22 235 0 234 0 5 -32z"/>
</g>
</svg>
