<?xml version="1.0" standalone="no"?>
<!DOCTYPE svg PUBLIC "-//W3C//DTD SVG 20010904//EN"
 "http://www.w3.org/TR/2001/REC-SVG-20010904/DTD/svg10.dtd">
<svg version="1.0" xmlns="http://www.w3.org/2000/svg"
 width="144.000000pt" height="144.000000pt" viewBox="0 0 144.000000 144.000000"
 preserveAspectRatio="xMidYMid meet">

<g transform="translate(0.000000,144.000000) scale(0.100000,-0.100000)"
fill="#000000" stroke="none">
<path d="M807 1426 c-56 -21 -66 -40 -67 -123 0 -39 3 -74 8 -76 4 -2 60 1
125 7 64 6 117 9 117 6 0 -3 -16 -16 -36 -30 -47 -31 -112 -112 -177 -218
l-52 -85 -5 229 c-3 126 -8 234 -12 241 -12 17 -155 15 -190 -3 -26 -13 -27
-16 -14 -37 13 -20 9 -33 -47 -149 -34 -71 -65 -128 -68 -128 -4 0 -10 17 -14
37 -10 53 -51 130 -80 149 -41 27 -96 29 -152 4 -29 -12 -59 -30 -68 -39 -14
-17 -14 -22 5 -66 l20 -47 -30 -247 c-56 -464 -76 -694 -65 -759 9 -56 36 -82
86 -82 50 0 102 28 93 50 -33 84 -27 197 36 697 17 128 30 240 30 250 0 43 14
-6 30 -107 13 -77 16 -120 9 -143 -21 -73 -6 -167 26 -167 16 0 16 1 45 -160
28 -154 55 -242 86 -279 33 -40 92 -43 144 -8 31 22 35 31 51 116 10 51 32
144 50 208 26 94 36 116 54 123 32 12 36 23 23 56 -9 26 -5 41 40 137 48 102
138 244 149 234 2 -3 -9 -117 -26 -253 -62 -513 -70 -678 -39 -726 24 -37 75
-46 125 -22 41 21 41 21 25 114 -12 69 -5 159 53 633 25 203 45 394 45 424 0
55 0 55 28 49 15 -3 59 -9 98 -12 123 -11 182 40 172 148 -3 26 -8 51 -11 54
-3 3 -55 -5 -117 -17 l-112 -22 -127 21 c-186 32 -221 34 -264 18z m-187 -366
l0 -231 -92 3 c-90 3 -92 4 -99 30 -5 19 2 48 25 105 48 115 149 323 158 323
4 0 8 -104 8 -230z m8 -332 c2 -22 -11 -81 -31 -146 -19 -60 -43 -143 -52
-186 -10 -43 -21 -74 -25 -69 -7 8 -70 392 -70 426 0 16 9 17 88 15 l87 -3 3
-37z"/>
</g>
</svg>
